<?xml version="1.0" standalone="no"?>
<svg xmlns="http://www.w3.org/2000/svg" width="1024" height="1024" xmlns:xlink="http://www.w3.org/1999/xlink" viewBox="0 0 1024 1024"><defs><clipPath id="clip-path-background-color-1"><rect x="0" y="0" width="1024" height="1024"/></clipPath><clipPath id="clip-path-dot-color-1"><circle cx="241.5" cy="25.5" r="13.5" transform="rotate(0,241.5,25.5)"/><circle cx="268.5" cy="25.5" r="13.5" transform="rotate(0,268.5,25.5)"/><circle cx="295.5" cy="25.5" r="13.5" transform="rotate(0,295.5,25.5)"/><circle cx="322.5" cy="25.5" r="13.5" transform="rotate(0,322.5,25.5)"/><circle cx="376.5" cy="25.5" r="13.5" transform="rotate(0,376.5,25.5)"/><circle cx="430.5" cy="25.5" r="13.5" transform="rotate(0,430.5,25.5)"/><circle cx="484.5" cy="25.5" r="13.5" transform="rotate(0,484.5,25.5)"/><circle cx="511.5" cy="25.5" r="13.5" transform="rotate(0,511.5,25.5)"/><circle cx="592.5" cy="25.5" r="13.5" transform="rotate(0,592.5,25.5)"/><circle cx="619.5" cy="25.5" r="13.5" transform="rotate(0,619.5,25.5)"/><circle cx="700.5" cy="25.5" r="13.5" transform="rotate(0,700.5,25.5)"/><circle cx="754.5" cy="25.5" r="13.5" transform="rotate(0,754.5,25.5)"/><circle cx="268.5" cy="52.5" r="13.5" transform="rotate(0,268.5,52.5)"/><circle cx="295.5" cy="52.5" r="13.5" transform="rotate(0,295.5,52.5)"/><circle cx="403.5" cy="52.5" r="13.5" transform="rotate(0,403.5,52.5)"/><circle cx="511.5" cy="52.5" r="13.5" transform="rotate(0,511.5,52.5)"/><circle cx="538.5" cy="52.5" r="13.5" transform="rotate(0,538.5,52.5)"/><circle cx="565.5" cy="52.5" r="13.5" transform="rotate(0,565.5,52.5)"/><circle cx="619.5" cy="52.5" r="13.5" transform="rotate(0,619.5,52.5)"/><circle cx="727.5" cy="52.5" r="13.5" transform="rotate(0,727.5,52.5)"/><circle cx="754.5" cy="52.5" r="13.5" transform="rotate(0,754.5,52.5)"/><circle cx="781.5" cy="52.5" r="13.5" transform="rotate(0,781.5,52.5)"/><circle cx="268.5" cy="79.5" r="13.5" transform="rotate(0,268.5,79.5)"/><circle cx="322.5" cy="79.5" r="13.5" transform="rotate(0,322.5,79.5)"/><circle cx="403.5" cy="79.5" r="13.5" transform="rotate(0,403.5,79.5)"/><circle cx="430.5" cy="79.5" r="13.5" transform="rotate(0,430.5,79.5)"/><circle cx="484.5" cy="79.5" r="13.5" transform="rotate(0,484.5,79.5)"/><circle cx="565.5" cy="79.5" r="13.5" transform="rotate(0,565.5,79.5)"/><circle cx="592.5" cy="79.5" r="13.5" transform="rotate(0,592.5,79.5)"/><circle cx="646.5" cy="79.5" r="13.5" transform="rotate(0,646.5,79.5)"/><circle cx="241.5" cy="106.5" r="13.5" transform="rotate(0,241.5,106.5)"/><circle cx="268.5" cy="106.5" r="13.5" transform="rotate(0,268.5,106.5)"/><circle cx="295.5" cy="106.5" r="13.5" transform="rotate(0,295.5,106.5)"/><circle cx="322.5" cy="106.5" r="13.5" transform="rotate(0,322.5,106.5)"/><circle cx="403.5" cy="106.5" r="13.5" transform="rotate(0,403.5,106.5)"/><circle cx="457.5" cy="106.5" r="13.5" transform="rotate(0,457.5,106.5)"/><circle cx="484.5" cy="106.5" r="13.5" transform="rotate(0,484.5,106.5)"/><circle cx="511.5" cy="106.5" r="13.5" transform="rotate(0,511.5,106.5)"/><circle cx="619.5" cy="106.5" r="13.5" transform="rotate(0,619.5,106.5)"/><circle cx="646.5" cy="106.5" r="13.5" transform="rotate(0,646.5,106.5)"/><circle cx="673.5" cy="106.5" r="13.5" transform="rotate(0,673.5,106.5)"/><circle cx="700.5" cy="106.5" r="13.5" transform="rotate(0,700.5,106.5)"/><circle cx="727.5" cy="106.5" r="13.5" transform="rotate(0,727.5,106.5)"/><circle cx="754.5" cy="106.5" r="13.5" transform="rotate(0,754.5,106.5)"/><circle cx="322.5" cy="133.5" r="13.5" transform="rotate(0,322.5,133.5)"/><circle cx="376.5" cy="133.5" r="13.5" transform="rotate(0,376.5,133.5)"/><circle cx="457.5" cy="133.5" r="13.5" transform="rotate(0,457.5,133.5)"/><circle cx="484.5" cy="133.5" r="13.5" transform="rotate(0,484.5,133.5)"/><circle cx="592.5" cy="133.5" r="13.5" transform="rotate(0,592.5,133.5)"/><circle cx="673.5" cy="133.5" r="13.5" transform="rotate(0,673.5,133.5)"/><circle cx="754.5" cy="133.5" r="13.5" transform="rotate(0,754.5,133.5)"/><circle cx="781.5" cy="133.5" r="13.5" transform="rotate(0,781.5,133.5)"/><circle cx="268.5" cy="160.5" r="13.5" transform="rotate(0,268.5,160.5)"/><circle cx="295.5" cy="160.5" r="13.5" transform="rotate(0,295.5,160.5)"/><circle cx="322.5" cy="160.5" r="13.5" transform="rotate(0,322.5,160.5)"/><circle cx="430.5" cy="160.5" r="13.5" transform="rotate(0,430.5,160.5)"/><circle cx="457.5" cy="160.5" r="13.5" transform="rotate(0,457.5,160.5)"/><circle cx="484.5" cy="160.5" r="13.5" transform="rotate(0,484.5,160.5)"/><circle cx="538.5" cy="160.5" r="13.5" transform="rotate(0,538.5,160.5)"/><circle cx="646.5" cy="160.5" r="13.5" transform="rotate(0,646.5,160.5)"/><circle cx="673.5" cy="160.5" r="13.5" transform="rotate(0,673.5,160.5)"/><circle cx="700.5" cy="160.5" r="13.5" transform="rotate(0,700.5,160.5)"/><circle cx="754.5" cy="160.5" r="13.5" transform="rotate(0,754.5,160.5)"/><circle cx="781.5" cy="160.5" r="13.5" transform="rotate(0,781.5,160.5)"/><circle cx="241.5" cy="187.5" r="13.5" transform="rotate(0,241.5,187.5)"/><circle cx="295.5" cy="187.5" r="13.5" transform="rotate(0,295.5,187.5)"/><circle cx="349.5" cy="187.5" r="13.5" transform="rotate(0,349.5,187.5)"/><circle cx="403.5" cy="187.5" r="13.5" transform="rotate(0,403.5,187.5)"/><circle cx="457.5" cy="187.5" r="13.5" transform="rotate(0,457.5,187.5)"/><circle cx="511.5" cy="187.5" r="13.5" transform="rotate(0,511.5,187.5)"/><circle cx="565.5" cy="187.5" r="13.5" transform="rotate(0,565.5,187.5)"/><circle cx="619.5" cy="187.5" r="13.5" transform="rotate(0,619.5,187.5)"/><circle cx="673.5" cy="187.5" r="13.5" transform="rotate(0,673.5,187.5)"/><circle cx="727.5" cy="187.5" r="13.5" transform="rotate(0,727.5,187.5)"/><circle cx="781.5" cy="187.5" r="13.5" transform="rotate(0,781.5,187.5)"/><circle cx="268.5" cy="214.5" r="13.5" transform="rotate(0,268.5,214.5)"/><circle cx="295.5" cy="214.5" r="13.5" transform="rotate(0,295.5,214.5)"/><circle cx="322.5" cy="214.5" r="13.5" transform="rotate(0,322.5,214.5)"/><circle cx="349.5" cy="214.5" r="13.5" transform="rotate(0,349.5,214.5)"/><circle cx="376.5" cy="214.5" r="13.5" transform="rotate(0,376.5,214.5)"/><circle cx="403.5" cy="214.5" r="13.5" transform="rotate(0,403.5,214.5)"/><circle cx="430.5" cy="214.5" r="13.5" transform="rotate(0,430.5,214.5)"/><circle cx="484.5" cy="214.5" r="13.5" transform="rotate(0,484.5,214.5)"/><circle cx="538.5" cy="214.5" r="13.5" transform="rotate(0,538.5,214.5)"/><circle cx="565.5" cy="214.5" r="13.5" transform="rotate(0,565.5,214.5)"/><circle cx="700.5" cy="214.5" r="13.5" transform="rotate(0,700.5,214.5)"/><circle cx="727.5" cy="214.5" r="13.5" transform="rotate(0,727.5,214.5)"/><circle cx="754.5" cy="214.5" r="13.5" transform="rotate(0,754.5,214.5)"/><circle cx="781.5" cy="214.5" r="13.5" transform="rotate(0,781.5,214.5)"/><circle cx="79.5" cy="241.5" r="13.5" transform="rotate(0,79.5,241.5)"/><circle cx="133.5" cy="241.5" r="13.5" transform="rotate(0,133.5,241.5)"/><circle cx="160.5" cy="241.5" r="13.5" transform="rotate(0,160.5,241.5)"/><circle cx="187.5" cy="241.5" r="13.5" transform="rotate(0,187.5,241.5)"/><circle cx="241.5" cy="241.5" r="13.5" transform="rotate(0,241.5,241.5)"/><circle cx="268.5" cy="241.5" r="13.5" transform="rotate(0,268.5,241.5)"/><circle cx="295.5" cy="241.5" r="13.5" transform="rotate(0,295.5,241.5)"/><circle cx="322.5" cy="241.5" r="13.5" transform="rotate(0,322.5,241.5)"/><circle cx="403.5" cy="241.5" r="13.5" transform="rotate(0,403.5,241.5)"/><circle cx="430.5" cy="241.5" r="13.5" transform="rotate(0,430.5,241.5)"/><circle cx="457.5" cy="241.5" r="13.5" transform="rotate(0,457.5,241.5)"/><circle cx="592.5" cy="241.5" r="13.5" transform="rotate(0,592.5,241.5)"/><circle cx="673.5" cy="241.5" r="13.5" transform="rotate(0,673.5,241.5)"/><circle cx="727.5" cy="241.5" r="13.5" transform="rotate(0,727.5,241.5)"/><circle cx="781.5" cy="241.5" r="13.5" transform="rotate(0,781.5,241.5)"/><circle cx="808.5" cy="241.5" r="13.5" transform="rotate(0,808.5,241.5)"/><circle cx="916.5" cy="241.5" r="13.5" transform="rotate(0,916.5,241.5)"/><circle cx="997.5" cy="241.5" r="13.5" transform="rotate(0,997.5,241.5)"/><circle cx="52.5" cy="268.5" r="13.5" transform="rotate(0,52.5,268.5)"/><circle cx="322.5" cy="268.5" r="13.5" transform="rotate(0,322.5,268.5)"/><circle cx="349.5" cy="268.5" r="13.5" transform="rotate(0,349.5,268.5)"/><circle cx="376.5" cy="268.5" r="13.5" transform="rotate(0,376.5,268.5)"/><circle cx="430.5" cy="268.5" r="13.5" transform="rotate(0,430.5,268.5)"/><circle cx="457.5" cy="268.5" r="13.5" transform="rotate(0,457.5,268.5)"/><circle cx="538.5" cy="268.5" r="13.5" transform="rotate(0,538.5,268.5)"/><circle cx="565.5" cy="268.5" r="13.5" transform="rotate(0,565.5,268.5)"/><circle cx="592.5" cy="268.5" r="13.5" transform="rotate(0,592.5,268.5)"/><circle cx="619.5" cy="268.5" r="13.5" transform="rotate(0,619.5,268.5)"/><circle cx="673.5" cy="268.5" r="13.5" transform="rotate(0,673.5,268.5)"/><circle cx="727.5" cy="268.5" r="13.5" transform="rotate(0,727.5,268.5)"/><circle cx="754.5" cy="268.5" r="13.5" transform="rotate(0,754.5,268.5)"/><circle cx="781.5" cy="268.5" r="13.5" transform="rotate(0,781.5,268.5)"/><circle cx="862.5" cy="268.5" r="13.5" transform="rotate(0,862.5,268.5)"/><circle cx="916.5" cy="268.5" r="13.5" transform="rotate(0,916.5,268.5)"/><circle cx="943.5" cy="268.5" r="13.5" transform="rotate(0,943.5,268.5)"/><circle cx="970.5" cy="268.5" r="13.5" transform="rotate(0,970.5,268.5)"/><circle cx="997.5" cy="268.5" r="13.5" transform="rotate(0,997.5,268.5)"/><circle cx="25.5" cy="295.5" r="13.5" transform="rotate(0,25.5,295.5)"/><circle cx="52.5" cy="295.5" r="13.5" transform="rotate(0,52.5,295.5)"/><circle cx="79.5" cy="295.5" r="13.5" transform="rotate(0,79.5,295.5)"/><circle cx="106.5" cy="295.5" r="13.5" transform="rotate(0,106.5,295.5)"/><circle cx="160.5" cy="295.5" r="13.5" transform="rotate(0,160.5,295.5)"/><circle cx="187.5" cy="295.5" r="13.5" transform="rotate(0,187.5,295.5)"/><circle cx="214.5" cy="295.5" r="13.5" transform="rotate(0,214.5,295.5)"/><circle cx="241.5" cy="295.5" r="13.5" transform="rotate(0,241.5,295.5)"/><circle cx="268.5" cy="295.5" r="13.5" transform="rotate(0,268.5,295.5)"/><circle cx="295.5" cy="295.5" r="13.5" transform="rotate(0,295.5,295.5)"/><circle cx="322.5" cy="295.5" r="13.5" transform="rotate(0,322.5,295.5)"/><circle cx="349.5" cy="295.5" r="13.5" transform="rotate(0,349.5,295.5)"/><circle cx="484.5" cy="295.5" r="13.5" transform="rotate(0,484.5,295.5)"/><circle cx="565.5" cy="295.5" r="13.5" transform="rotate(0,565.5,295.5)"/><circle cx="619.5" cy="295.5" r="13.5" transform="rotate(0,619.5,295.5)"/><circle cx="646.5" cy="295.5" r="13.5" transform="rotate(0,646.5,295.5)"/><circle cx="673.5" cy="295.5" r="13.5" transform="rotate(0,673.5,295.5)"/><circle cx="754.5" cy="295.5" r="13.5" transform="rotate(0,754.5,295.5)"/><circle cx="781.5" cy="295.5" r="13.5" transform="rotate(0,781.5,295.5)"/><circle cx="835.5" cy="295.5" r="13.5" transform="rotate(0,835.5,295.5)"/><circle cx="862.5" cy="295.5" r="13.5" transform="rotate(0,862.5,295.5)"/><circle cx="889.5" cy="295.5" r="13.5" transform="rotate(0,889.5,295.5)"/><circle cx="943.5" cy="295.5" r="13.5" transform="rotate(0,943.5,295.5)"/><circle cx="997.5" cy="295.5" r="13.5" transform="rotate(0,997.5,295.5)"/><circle cx="133.5" cy="322.5" r="13.5" transform="rotate(0,133.5,322.5)"/><circle cx="214.5" cy="322.5" r="13.5" transform="rotate(0,214.5,322.5)"/><circle cx="241.5" cy="322.5" r="13.5" transform="rotate(0,241.5,322.5)"/><circle cx="268.5" cy="322.5" r="13.5" transform="rotate(0,268.5,322.5)"/><circle cx="322.5" cy="322.5" r="13.5" transform="rotate(0,322.5,322.5)"/><circle cx="403.5" cy="322.5" r="13.5" transform="rotate(0,403.5,322.5)"/><circle cx="430.5" cy="322.5" r="13.5" transform="rotate(0,430.5,322.5)"/><circle cx="673.5" cy="322.5" r="13.5" transform="rotate(0,673.5,322.5)"/><circle cx="700.5" cy="322.5" r="13.5" transform="rotate(0,700.5,322.5)"/><circle cx="727.5" cy="322.5" r="13.5" transform="rotate(0,727.5,322.5)"/><circle cx="781.5" cy="322.5" r="13.5" transform="rotate(0,781.5,322.5)"/><circle cx="835.5" cy="322.5" r="13.5" transform="rotate(0,835.5,322.5)"/><circle cx="862.5" cy="322.5" r="13.5" transform="rotate(0,862.5,322.5)"/><circle cx="916.5" cy="322.5" r="13.5" transform="rotate(0,916.5,322.5)"/><circle cx="970.5" cy="322.5" r="13.5" transform="rotate(0,970.5,322.5)"/><circle cx="25.5" cy="349.5" r="13.5" transform="rotate(0,25.5,349.5)"/><circle cx="52.5" cy="349.5" r="13.5" transform="rotate(0,52.5,349.5)"/><circle cx="160.5" cy="349.5" r="13.5" transform="rotate(0,160.5,349.5)"/><circle cx="187.5" cy="349.5" r="13.5" transform="rotate(0,187.5,349.5)"/><circle cx="322.5" cy="349.5" r="13.5" transform="rotate(0,322.5,349.5)"/><circle cx="349.5" cy="349.5" r="13.5" transform="rotate(0,349.5,349.5)"/><circle cx="376.5" cy="349.5" r="13.5" transform="rotate(0,376.5,349.5)"/><circle cx="430.5" cy="349.5" r="13.5" transform="rotate(0,430.5,349.5)"/><circle cx="511.5" cy="349.5" r="13.5" transform="rotate(0,511.5,349.5)"/><circle cx="538.5" cy="349.5" r="13.5" transform="rotate(0,538.5,349.5)"/><circle cx="592.5" cy="349.5" r="13.5" transform="rotate(0,592.5,349.5)"/><circle cx="619.5" cy="349.5" r="13.5" transform="rotate(0,619.5,349.5)"/><circle cx="673.5" cy="349.5" r="13.5" transform="rotate(0,673.5,349.5)"/><circle cx="700.5" cy="349.5" r="13.5" transform="rotate(0,700.5,349.5)"/><circle cx="754.5" cy="349.5" r="13.5" transform="rotate(0,754.5,349.5)"/><circle cx="781.5" cy="349.5" r="13.5" transform="rotate(0,781.5,349.5)"/><circle cx="808.5" cy="349.5" r="13.5" transform="rotate(0,808.5,349.5)"/><circle cx="835.5" cy="349.5" r="13.5" transform="rotate(0,835.5,349.5)"/><circle cx="862.5" cy="349.5" r="13.5" transform="rotate(0,862.5,349.5)"/><circle cx="916.5" cy="349.5" r="13.5" transform="rotate(0,916.5,349.5)"/><circle cx="970.5" cy="349.5" r="13.5" transform="rotate(0,970.5,349.5)"/><circle cx="52.5" cy="376.5" r="13.5" transform="rotate(0,52.5,376.5)"/><circle cx="106.5" cy="376.5" r="13.5" transform="rotate(0,106.5,376.5)"/><circle cx="214.5" cy="376.5" r="13.5" transform="rotate(0,214.5,376.5)"/><circle cx="322.5" cy="376.5" r="13.5" transform="rotate(0,322.5,376.5)"/><circle cx="349.5" cy="376.5" r="13.5" transform="rotate(0,349.5,376.5)"/><circle cx="376.5" cy="376.5" r="13.5" transform="rotate(0,376.5,376.5)"/><circle cx="403.5" cy="376.5" r="13.5" transform="rotate(0,403.5,376.5)"/><circle cx="484.5" cy="376.5" r="13.5" transform="rotate(0,484.5,376.5)"/><circle cx="565.5" cy="376.5" r="13.5" transform="rotate(0,565.5,376.5)"/><circle cx="592.5" cy="376.5" r="13.5" transform="rotate(0,592.5,376.5)"/><circle cx="619.5" cy="376.5" r="13.5" transform="rotate(0,619.5,376.5)"/><circle cx="646.5" cy="376.5" r="13.5" transform="rotate(0,646.5,376.5)"/><circle cx="700.5" cy="376.5" r="13.5" transform="rotate(0,700.5,376.5)"/><circle cx="808.5" cy="376.5" r="13.5" transform="rotate(0,808.5,376.5)"/><circle cx="835.5" cy="376.5" r="13.5" transform="rotate(0,835.5,376.5)"/><circle cx="916.5" cy="376.5" r="13.5" transform="rotate(0,916.5,376.5)"/><circle cx="970.5" cy="376.5" r="13.5" transform="rotate(0,970.5,376.5)"/><circle cx="997.5" cy="376.5" r="13.5" transform="rotate(0,997.5,376.5)"/><circle cx="79.5" cy="403.5" r="13.5" transform="rotate(0,79.5,403.5)"/><circle cx="106.5" cy="403.5" r="13.5" transform="rotate(0,106.5,403.5)"/><circle cx="133.5" cy="403.5" r="13.5" transform="rotate(0,133.5,403.5)"/><circle cx="187.5" cy="403.5" r="13.5" transform="rotate(0,187.5,403.5)"/><circle cx="214.5" cy="403.5" r="13.5" transform="rotate(0,214.5,403.5)"/><circle cx="241.5" cy="403.5" r="13.5" transform="rotate(0,241.5,403.5)"/><circle cx="349.5" cy="403.5" r="13.5" transform="rotate(0,349.5,403.5)"/><circle cx="457.5" cy="403.5" r="13.5" transform="rotate(0,457.5,403.5)"/><circle cx="484.5" cy="403.5" r="13.5" transform="rotate(0,484.5,403.5)"/><circle cx="538.5" cy="403.5" r="13.5" transform="rotate(0,538.5,403.5)"/><circle cx="673.5" cy="403.5" r="13.5" transform="rotate(0,673.5,403.5)"/><circle cx="700.5" cy="403.5" r="13.5" transform="rotate(0,700.5,403.5)"/><circle cx="727.5" cy="403.5" r="13.5" transform="rotate(0,727.5,403.5)"/><circle cx="781.5" cy="403.5" r="13.5" transform="rotate(0,781.5,403.5)"/><circle cx="889.5" cy="403.5" r="13.5" transform="rotate(0,889.5,403.5)"/><circle cx="916.5" cy="403.5" r="13.5" transform="rotate(0,916.5,403.5)"/><circle cx="943.5" cy="403.5" r="13.5" transform="rotate(0,943.5,403.5)"/><circle cx="970.5" cy="403.5" r="13.5" transform="rotate(0,970.5,403.5)"/><circle cx="997.5" cy="403.5" r="13.5" transform="rotate(0,997.5,403.5)"/><circle cx="79.5" cy="430.5" r="13.5" transform="rotate(0,79.5,430.5)"/><circle cx="133.5" cy="430.5" r="13.5" transform="rotate(0,133.5,430.5)"/><circle cx="160.5" cy="430.5" r="13.5" transform="rotate(0,160.5,430.5)"/><circle cx="241.5" cy="430.5" r="13.5" transform="rotate(0,241.5,430.5)"/><circle cx="295.5" cy="430.5" r="13.5" transform="rotate(0,295.5,430.5)"/><circle cx="322.5" cy="430.5" r="13.5" transform="rotate(0,322.5,430.5)"/><circle cx="457.5" cy="430.5" r="13.5" transform="rotate(0,457.5,430.5)"/><circle cx="484.5" cy="430.5" r="13.5" transform="rotate(0,484.5,430.5)"/><circle cx="511.5" cy="430.5" r="13.5" transform="rotate(0,511.5,430.5)"/><circle cx="565.5" cy="430.5" r="13.5" transform="rotate(0,565.5,430.5)"/><circle cx="619.5" cy="430.5" r="13.5" transform="rotate(0,619.5,430.5)"/><circle cx="646.5" cy="430.5" r="13.5" transform="rotate(0,646.5,430.5)"/><circle cx="700.5" cy="430.5" r="13.5" transform="rotate(0,700.5,430.5)"/><circle cx="862.5" cy="430.5" r="13.5" transform="rotate(0,862.5,430.5)"/><circle cx="997.5" cy="430.5" r="13.5" transform="rotate(0,997.5,430.5)"/><circle cx="25.5" cy="457.5" r="13.5" transform="rotate(0,25.5,457.5)"/><circle cx="79.5" cy="457.5" r="13.5" transform="rotate(0,79.5,457.5)"/><circle cx="133.5" cy="457.5" r="13.5" transform="rotate(0,133.5,457.5)"/><circle cx="160.5" cy="457.5" r="13.5" transform="rotate(0,160.5,457.5)"/><circle cx="187.5" cy="457.5" r="13.5" transform="rotate(0,187.5,457.5)"/><circle cx="295.5" cy="457.5" r="13.5" transform="rotate(0,295.5,457.5)"/><circle cx="376.5" cy="457.5" r="13.5" transform="rotate(0,376.5,457.5)"/><circle cx="403.5" cy="457.5" r="13.5" transform="rotate(0,403.5,457.5)"/><circle cx="565.5" cy="457.5" r="13.5" transform="rotate(0,565.5,457.5)"/><circle cx="619.5" cy="457.5" r="13.5" transform="rotate(0,619.5,457.5)"/><circle cx="646.5" cy="457.5" r="13.5" transform="rotate(0,646.5,457.5)"/><circle cx="700.5" cy="457.5" r="13.5" transform="rotate(0,700.5,457.5)"/><circle cx="781.5" cy="457.5" r="13.5" transform="rotate(0,781.5,457.5)"/><circle cx="835.5" cy="457.5" r="13.5" transform="rotate(0,835.5,457.5)"/><circle cx="916.5" cy="457.5" r="13.5" transform="rotate(0,916.5,457.5)"/><circle cx="25.5" cy="484.5" r="13.5" transform="rotate(0,25.5,484.5)"/><circle cx="52.5" cy="484.5" r="13.5" transform="rotate(0,52.5,484.5)"/><circle cx="133.5" cy="484.5" r="13.5" transform="rotate(0,133.5,484.5)"/><circle cx="214.5" cy="484.5" r="13.5" transform="rotate(0,214.5,484.5)"/><circle cx="241.5" cy="484.5" r="13.5" transform="rotate(0,241.5,484.5)"/><circle cx="268.5" cy="484.5" r="13.5" transform="rotate(0,268.5,484.5)"/><circle cx="295.5" cy="484.5" r="13.5" transform="rotate(0,295.5,484.5)"/><circle cx="349.5" cy="484.5" r="13.5" transform="rotate(0,349.5,484.5)"/><circle cx="376.5" cy="484.5" r="13.5" transform="rotate(0,376.5,484.5)"/><circle cx="403.5" cy="484.5" r="13.5" transform="rotate(0,403.5,484.5)"/><circle cx="430.5" cy="484.5" r="13.5" transform="rotate(0,430.5,484.5)"/><circle cx="457.5" cy="484.5" r="13.5" transform="rotate(0,457.5,484.5)"/><circle cx="484.5" cy="484.5" r="13.5" transform="rotate(0,484.5,484.5)"/><circle cx="511.5" cy="484.5" r="13.5" transform="rotate(0,511.5,484.5)"/><circle cx="538.5" cy="484.5" r="13.5" transform="rotate(0,538.5,484.5)"/><circle cx="619.5" cy="484.5" r="13.5" transform="rotate(0,619.5,484.5)"/><circle cx="646.5" cy="484.5" r="13.5" transform="rotate(0,646.5,484.5)"/><circle cx="700.5" cy="484.5" r="13.5" transform="rotate(0,700.5,484.5)"/><circle cx="781.5" cy="484.5" r="13.5" transform="rotate(0,781.5,484.5)"/><circle cx="808.5" cy="484.5" r="13.5" transform="rotate(0,808.5,484.5)"/><circle cx="835.5" cy="484.5" r="13.5" transform="rotate(0,835.5,484.5)"/><circle cx="997.5" cy="484.5" r="13.5" transform="rotate(0,997.5,484.5)"/><circle cx="52.5" cy="511.5" r="13.5" transform="rotate(0,52.5,511.5)"/><circle cx="79.5" cy="511.5" r="13.5" transform="rotate(0,79.5,511.5)"/><circle cx="106.5" cy="511.5" r="13.5" transform="rotate(0,106.5,511.5)"/><circle cx="160.5" cy="511.5" r="13.5" transform="rotate(0,160.5,511.5)"/><circle cx="187.5" cy="511.5" r="13.5" transform="rotate(0,187.5,511.5)"/><circle cx="241.5" cy="511.5" r="13.5" transform="rotate(0,241.5,511.5)"/><circle cx="295.5" cy="511.5" r="13.5" transform="rotate(0,295.5,511.5)"/><circle cx="349.5" cy="511.5" r="13.5" transform="rotate(0,349.5,511.5)"/><circle cx="376.5" cy="511.5" r="13.5" transform="rotate(0,376.5,511.5)"/><circle cx="457.5" cy="511.5" r="13.5" transform="rotate(0,457.5,511.5)"/><circle cx="619.5" cy="511.5" r="13.5" transform="rotate(0,619.5,511.5)"/><circle cx="727.5" cy="511.5" r="13.5" transform="rotate(0,727.5,511.5)"/><circle cx="781.5" cy="511.5" r="13.5" transform="rotate(0,781.5,511.5)"/><circle cx="835.5" cy="511.5" r="13.5" transform="rotate(0,835.5,511.5)"/><circle cx="889.5" cy="511.5" r="13.5" transform="rotate(0,889.5,511.5)"/><circle cx="916.5" cy="511.5" r="13.5" transform="rotate(0,916.5,511.5)"/><circle cx="943.5" cy="511.5" r="13.5" transform="rotate(0,943.5,511.5)"/><circle cx="970.5" cy="511.5" r="13.5" transform="rotate(0,970.5,511.5)"/><circle cx="997.5" cy="511.5" r="13.5" transform="rotate(0,997.5,511.5)"/><circle cx="25.5" cy="538.5" r="13.5" transform="rotate(0,25.5,538.5)"/><circle cx="52.5" cy="538.5" r="13.5" transform="rotate(0,52.5,538.5)"/><circle cx="79.5" cy="538.5" r="13.5" transform="rotate(0,79.5,538.5)"/><circle cx="106.5" cy="538.5" r="13.5" transform="rotate(0,106.5,538.5)"/><circle cx="133.5" cy="538.5" r="13.5" transform="rotate(0,133.5,538.5)"/><circle cx="268.5" cy="538.5" r="13.5" transform="rotate(0,268.5,538.5)"/><circle cx="322.5" cy="538.5" r="13.5" transform="rotate(0,322.5,538.5)"/><circle cx="403.5" cy="538.5" r="13.5" transform="rotate(0,403.5,538.5)"/><circle cx="457.5" cy="538.5" r="13.5" transform="rotate(0,457.5,538.5)"/><circle cx="484.5" cy="538.5" r="13.5" transform="rotate(0,484.5,538.5)"/><circle cx="511.5" cy="538.5" r="13.5" transform="rotate(0,511.5,538.5)"/><circle cx="538.5" cy="538.5" r="13.5" transform="rotate(0,538.5,538.5)"/><circle cx="565.5" cy="538.5" r="13.5" transform="rotate(0,565.5,538.5)"/><circle cx="592.5" cy="538.5" r="13.5" transform="rotate(0,592.5,538.5)"/><circle cx="619.5" cy="538.5" r="13.5" transform="rotate(0,619.5,538.5)"/><circle cx="673.5" cy="538.5" r="13.5" transform="rotate(0,673.5,538.5)"/><circle cx="700.5" cy="538.5" r="13.5" transform="rotate(0,700.5,538.5)"/><circle cx="781.5" cy="538.5" r="13.5" transform="rotate(0,781.5,538.5)"/><circle cx="808.5" cy="538.5" r="13.5" transform="rotate(0,808.5,538.5)"/><circle cx="862.5" cy="538.5" r="13.5" transform="rotate(0,862.5,538.5)"/><circle cx="889.5" cy="538.5" r="13.5" transform="rotate(0,889.5,538.5)"/><circle cx="916.5" cy="538.5" r="13.5" transform="rotate(0,916.5,538.5)"/><circle cx="997.5" cy="538.5" r="13.5" transform="rotate(0,997.5,538.5)"/><circle cx="52.5" cy="565.5" r="13.5" transform="rotate(0,52.5,565.5)"/><circle cx="79.5" cy="565.5" r="13.5" transform="rotate(0,79.5,565.5)"/><circle cx="106.5" cy="565.5" r="13.5" transform="rotate(0,106.5,565.5)"/><circle cx="133.5" cy="565.5" r="13.5" transform="rotate(0,133.5,565.5)"/><circle cx="160.5" cy="565.5" r="13.5" transform="rotate(0,160.5,565.5)"/><circle cx="187.5" cy="565.5" r="13.5" transform="rotate(0,187.5,565.5)"/><circle cx="214.5" cy="565.5" r="13.5" transform="rotate(0,214.5,565.5)"/><circle cx="268.5" cy="565.5" r="13.5" transform="rotate(0,268.5,565.5)"/><circle cx="295.5" cy="565.5" r="13.5" transform="rotate(0,295.5,565.5)"/><circle cx="403.5" cy="565.5" r="13.5" transform="rotate(0,403.5,565.5)"/><circle cx="430.5" cy="565.5" r="13.5" transform="rotate(0,430.5,565.5)"/><circle cx="484.5" cy="565.5" r="13.5" transform="rotate(0,484.5,565.5)"/><circle cx="538.5" cy="565.5" r="13.5" transform="rotate(0,538.5,565.5)"/><circle cx="565.5" cy="565.5" r="13.5" transform="rotate(0,565.5,565.5)"/><circle cx="619.5" cy="565.5" r="13.5" transform="rotate(0,619.5,565.5)"/><circle cx="646.5" cy="565.5" r="13.5" transform="rotate(0,646.5,565.5)"/><circle cx="781.5" cy="565.5" r="13.5" transform="rotate(0,781.5,565.5)"/><circle cx="835.5" cy="565.5" r="13.5" transform="rotate(0,835.5,565.5)"/><circle cx="997.5" cy="565.5" r="13.5" transform="rotate(0,997.5,565.5)"/><circle cx="52.5" cy="592.5" r="13.5" transform="rotate(0,52.5,592.5)"/><circle cx="79.5" cy="592.5" r="13.5" transform="rotate(0,79.5,592.5)"/><circle cx="106.5" cy="592.5" r="13.5" transform="rotate(0,106.5,592.5)"/><circle cx="241.5" cy="592.5" r="13.5" transform="rotate(0,241.5,592.5)"/><circle cx="268.5" cy="592.5" r="13.5" transform="rotate(0,268.5,592.5)"/><circle cx="322.5" cy="592.5" r="13.5" transform="rotate(0,322.5,592.5)"/><circle cx="349.5" cy="592.5" r="13.5" transform="rotate(0,349.5,592.5)"/><circle cx="403.5" cy="592.5" r="13.5" transform="rotate(0,403.5,592.5)"/><circle cx="430.5" cy="592.5" r="13.5" transform="rotate(0,430.5,592.5)"/><circle cx="511.5" cy="592.5" r="13.5" transform="rotate(0,511.5,592.5)"/><circle cx="592.5" cy="592.5" r="13.5" transform="rotate(0,592.5,592.5)"/><circle cx="619.5" cy="592.5" r="13.5" transform="rotate(0,619.5,592.5)"/><circle cx="646.5" cy="592.5" r="13.5" transform="rotate(0,646.5,592.5)"/><circle cx="727.5" cy="592.5" r="13.5" transform="rotate(0,727.5,592.5)"/><circle cx="781.5" cy="592.5" r="13.5" transform="rotate(0,781.5,592.5)"/><circle cx="808.5" cy="592.5" r="13.5" transform="rotate(0,808.5,592.5)"/><circle cx="835.5" cy="592.5" r="13.5" transform="rotate(0,835.5,592.5)"/><circle cx="943.5" cy="592.5" r="13.5" transform="rotate(0,943.5,592.5)"/><circle cx="970.5" cy="592.5" r="13.5" transform="rotate(0,970.5,592.5)"/><circle cx="25.5" cy="619.5" r="13.5" transform="rotate(0,25.5,619.5)"/><circle cx="52.5" cy="619.5" r="13.5" transform="rotate(0,52.5,619.5)"/><circle cx="79.5" cy="619.5" r="13.5" transform="rotate(0,79.5,619.5)"/><circle cx="106.5" cy="619.5" r="13.5" transform="rotate(0,106.5,619.5)"/><circle cx="133.5" cy="619.5" r="13.5" transform="rotate(0,133.5,619.5)"/><circle cx="160.5" cy="619.5" r="13.5" transform="rotate(0,160.5,619.5)"/><circle cx="187.5" cy="619.5" r="13.5" transform="rotate(0,187.5,619.5)"/><circle cx="241.5" cy="619.5" r="13.5" transform="rotate(0,241.5,619.5)"/><circle cx="268.5" cy="619.5" r="13.5" transform="rotate(0,268.5,619.5)"/><circle cx="295.5" cy="619.5" r="13.5" transform="rotate(0,295.5,619.5)"/><circle cx="322.5" cy="619.5" r="13.5" transform="rotate(0,322.5,619.5)"/><circle cx="349.5" cy="619.5" r="13.5" transform="rotate(0,349.5,619.5)"/><circle cx="430.5" cy="619.5" r="13.5" transform="rotate(0,430.5,619.5)"/><circle cx="484.5" cy="619.5" r="13.5" transform="rotate(0,484.5,619.5)"/><circle cx="511.5" cy="619.5" r="13.5" transform="rotate(0,511.5,619.5)"/><circle cx="538.5" cy="619.5" r="13.5" transform="rotate(0,538.5,619.5)"/><circle cx="565.5" cy="619.5" r="13.5" transform="rotate(0,565.5,619.5)"/><circle cx="592.5" cy="619.5" r="13.5" transform="rotate(0,592.5,619.5)"/><circle cx="646.5" cy="619.5" r="13.5" transform="rotate(0,646.5,619.5)"/><circle cx="700.5" cy="619.5" r="13.5" transform="rotate(0,700.5,619.5)"/><circle cx="781.5" cy="619.5" r="13.5" transform="rotate(0,781.5,619.5)"/><circle cx="808.5" cy="619.5" r="13.5" transform="rotate(0,808.5,619.5)"/><circle cx="862.5" cy="619.5" r="13.5" transform="rotate(0,862.5,619.5)"/><circle cx="889.5" cy="619.5" r="13.5" transform="rotate(0,889.5,619.5)"/><circle cx="970.5" cy="619.5" r="13.5" transform="rotate(0,970.5,619.5)"/><circle cx="997.5" cy="619.5" r="13.5" transform="rotate(0,997.5,619.5)"/><circle cx="25.5" cy="646.5" r="13.5" transform="rotate(0,25.5,646.5)"/><circle cx="52.5" cy="646.5" r="13.5" transform="rotate(0,52.5,646.5)"/><circle cx="79.5" cy="646.5" r="13.5" transform="rotate(0,79.5,646.5)"/><circle cx="133.5" cy="646.5" r="13.5" transform="rotate(0,133.5,646.5)"/><circle cx="268.5" cy="646.5" r="13.5" transform="rotate(0,268.5,646.5)"/><circle cx="295.5" cy="646.5" r="13.5" transform="rotate(0,295.5,646.5)"/><circle cx="376.5" cy="646.5" r="13.5" transform="rotate(0,376.5,646.5)"/><circle cx="403.5" cy="646.5" r="13.5" transform="rotate(0,403.5,646.5)"/><circle cx="430.5" cy="646.5" r="13.5" transform="rotate(0,430.5,646.5)"/><circle cx="457.5" cy="646.5" r="13.5" transform="rotate(0,457.5,646.5)"/><circle cx="484.5" cy="646.5" r="13.5" transform="rotate(0,484.5,646.5)"/><circle cx="565.5" cy="646.5" r="13.5" transform="rotate(0,565.5,646.5)"/><circle cx="619.5" cy="646.5" r="13.5" transform="rotate(0,619.5,646.5)"/><circle cx="754.5" cy="646.5" r="13.5" transform="rotate(0,754.5,646.5)"/><circle cx="781.5" cy="646.5" r="13.5" transform="rotate(0,781.5,646.5)"/><circle cx="808.5" cy="646.5" r="13.5" transform="rotate(0,808.5,646.5)"/><circle cx="835.5" cy="646.5" r="13.5" transform="rotate(0,835.5,646.5)"/><circle cx="889.5" cy="646.5" r="13.5" transform="rotate(0,889.5,646.5)"/><circle cx="970.5" cy="646.5" r="13.5" transform="rotate(0,970.5,646.5)"/><circle cx="997.5" cy="646.5" r="13.5" transform="rotate(0,997.5,646.5)"/><circle cx="25.5" cy="673.5" r="13.5" transform="rotate(0,25.5,673.5)"/><circle cx="133.5" cy="673.5" r="13.5" transform="rotate(0,133.5,673.5)"/><circle cx="160.5" cy="673.5" r="13.5" transform="rotate(0,160.5,673.5)"/><circle cx="187.5" cy="673.5" r="13.5" transform="rotate(0,187.5,673.5)"/><circle cx="214.5" cy="673.5" r="13.5" transform="rotate(0,214.5,673.5)"/><circle cx="268.5" cy="673.5" r="13.5" transform="rotate(0,268.5,673.5)"/><circle cx="349.5" cy="673.5" r="13.5" transform="rotate(0,349.5,673.5)"/><circle cx="403.5" cy="673.5" r="13.5" transform="rotate(0,403.5,673.5)"/><circle cx="430.5" cy="673.5" r="13.5" transform="rotate(0,430.5,673.5)"/><circle cx="457.5" cy="673.5" r="13.5" transform="rotate(0,457.5,673.5)"/><circle cx="484.5" cy="673.5" r="13.5" transform="rotate(0,484.5,673.5)"/><circle cx="511.5" cy="673.5" r="13.5" transform="rotate(0,511.5,673.5)"/><circle cx="565.5" cy="673.5" r="13.5" transform="rotate(0,565.5,673.5)"/><circle cx="592.5" cy="673.5" r="13.5" transform="rotate(0,592.5,673.5)"/><circle cx="646.5" cy="673.5" r="13.5" transform="rotate(0,646.5,673.5)"/><circle cx="673.5" cy="673.5" r="13.5" transform="rotate(0,673.5,673.5)"/><circle cx="808.5" cy="673.5" r="13.5" transform="rotate(0,808.5,673.5)"/><circle cx="889.5" cy="673.5" r="13.5" transform="rotate(0,889.5,673.5)"/><circle cx="106.5" cy="700.5" r="13.5" transform="rotate(0,106.5,700.5)"/><circle cx="160.5" cy="700.5" r="13.5" transform="rotate(0,160.5,700.5)"/><circle cx="214.5" cy="700.5" r="13.5" transform="rotate(0,214.5,700.5)"/><circle cx="268.5" cy="700.5" r="13.5" transform="rotate(0,268.5,700.5)"/><circle cx="322.5" cy="700.5" r="13.5" transform="rotate(0,322.5,700.5)"/><circle cx="376.5" cy="700.5" r="13.5" transform="rotate(0,376.5,700.5)"/><circle cx="457.5" cy="700.5" r="13.5" transform="rotate(0,457.5,700.5)"/><circle cx="511.5" cy="700.5" r="13.5" transform="rotate(0,511.5,700.5)"/><circle cx="565.5" cy="700.5" r="13.5" transform="rotate(0,565.5,700.5)"/><circle cx="592.5" cy="700.5" r="13.5" transform="rotate(0,592.5,700.5)"/><circle cx="646.5" cy="700.5" r="13.5" transform="rotate(0,646.5,700.5)"/><circle cx="673.5" cy="700.5" r="13.5" transform="rotate(0,673.5,700.5)"/><circle cx="754.5" cy="700.5" r="13.5" transform="rotate(0,754.5,700.5)"/><circle cx="808.5" cy="700.5" r="13.5" transform="rotate(0,808.5,700.5)"/><circle cx="889.5" cy="700.5" r="13.5" transform="rotate(0,889.5,700.5)"/><circle cx="916.5" cy="700.5" r="13.5" transform="rotate(0,916.5,700.5)"/><circle cx="970.5" cy="700.5" r="13.5" transform="rotate(0,970.5,700.5)"/><circle cx="997.5" cy="700.5" r="13.5" transform="rotate(0,997.5,700.5)"/><circle cx="25.5" cy="727.5" r="13.5" transform="rotate(0,25.5,727.5)"/><circle cx="79.5" cy="727.5" r="13.5" transform="rotate(0,79.5,727.5)"/><circle cx="106.5" cy="727.5" r="13.5" transform="rotate(0,106.5,727.5)"/><circle cx="133.5" cy="727.5" r="13.5" transform="rotate(0,133.5,727.5)"/><circle cx="187.5" cy="727.5" r="13.5" transform="rotate(0,187.5,727.5)"/><circle cx="214.5" cy="727.5" r="13.5" transform="rotate(0,214.5,727.5)"/><circle cx="241.5" cy="727.5" r="13.5" transform="rotate(0,241.5,727.5)"/><circle cx="268.5" cy="727.5" r="13.5" transform="rotate(0,268.5,727.5)"/><circle cx="295.5" cy="727.5" r="13.5" transform="rotate(0,295.5,727.5)"/><circle cx="376.5" cy="727.5" r="13.5" transform="rotate(0,376.5,727.5)"/><circle cx="430.5" cy="727.5" r="13.5" transform="rotate(0,430.5,727.5)"/><circle cx="457.5" cy="727.5" r="13.5" transform="rotate(0,457.5,727.5)"/><circle cx="484.5" cy="727.5" r="13.5" transform="rotate(0,484.5,727.5)"/><circle cx="592.5" cy="727.5" r="13.5" transform="rotate(0,592.5,727.5)"/><circle cx="646.5" cy="727.5" r="13.5" transform="rotate(0,646.5,727.5)"/><circle cx="673.5" cy="727.5" r="13.5" transform="rotate(0,673.5,727.5)"/><circle cx="808.5" cy="727.5" r="13.5" transform="rotate(0,808.5,727.5)"/><circle cx="970.5" cy="727.5" r="13.5" transform="rotate(0,970.5,727.5)"/><circle cx="997.5" cy="727.5" r="13.5" transform="rotate(0,997.5,727.5)"/><circle cx="52.5" cy="754.5" r="13.5" transform="rotate(0,52.5,754.5)"/><circle cx="241.5" cy="754.5" r="13.5" transform="rotate(0,241.5,754.5)"/><circle cx="376.5" cy="754.5" r="13.5" transform="rotate(0,376.5,754.5)"/><circle cx="403.5" cy="754.5" r="13.5" transform="rotate(0,403.5,754.5)"/><circle cx="457.5" cy="754.5" r="13.5" transform="rotate(0,457.5,754.5)"/><circle cx="484.5" cy="754.5" r="13.5" transform="rotate(0,484.5,754.5)"/><circle cx="511.5" cy="754.5" r="13.5" transform="rotate(0,511.5,754.5)"/><circle cx="592.5" cy="754.5" r="13.5" transform="rotate(0,592.5,754.5)"/><circle cx="673.5" cy="754.5" r="13.5" transform="rotate(0,673.5,754.5)"/><circle cx="700.5" cy="754.5" r="13.5" transform="rotate(0,700.5,754.5)"/><circle cx="754.5" cy="754.5" r="13.5" transform="rotate(0,754.5,754.5)"/><circle cx="835.5" cy="754.5" r="13.5" transform="rotate(0,835.5,754.5)"/><circle cx="889.5" cy="754.5" r="13.5" transform="rotate(0,889.5,754.5)"/><circle cx="916.5" cy="754.5" r="13.5" transform="rotate(0,916.5,754.5)"/><circle cx="25.5" cy="781.5" r="13.5" transform="rotate(0,25.5,781.5)"/><circle cx="106.5" cy="781.5" r="13.5" transform="rotate(0,106.5,781.5)"/><circle cx="133.5" cy="781.5" r="13.5" transform="rotate(0,133.5,781.5)"/><circle cx="187.5" cy="781.5" r="13.5" transform="rotate(0,187.5,781.5)"/><circle cx="268.5" cy="781.5" r="13.5" transform="rotate(0,268.5,781.5)"/><circle cx="295.5" cy="781.5" r="13.5" transform="rotate(0,295.5,781.5)"/><circle cx="349.5" cy="781.5" r="13.5" transform="rotate(0,349.5,781.5)"/><circle cx="430.5" cy="781.5" r="13.5" transform="rotate(0,430.5,781.5)"/><circle cx="457.5" cy="781.5" r="13.5" transform="rotate(0,457.5,781.5)"/><circle cx="511.5" cy="781.5" r="13.5" transform="rotate(0,511.5,781.5)"/><circle cx="538.5" cy="781.5" r="13.5" transform="rotate(0,538.5,781.5)"/><circle cx="646.5" cy="781.5" r="13.5" transform="rotate(0,646.5,781.5)"/><circle cx="700.5" cy="781.5" r="13.5" transform="rotate(0,700.5,781.5)"/><circle cx="781.5" cy="781.5" r="13.5" transform="rotate(0,781.5,781.5)"/><circle cx="808.5" cy="781.5" r="13.5" transform="rotate(0,808.5,781.5)"/><circle cx="835.5" cy="781.5" r="13.5" transform="rotate(0,835.5,781.5)"/><circle cx="862.5" cy="781.5" r="13.5" transform="rotate(0,862.5,781.5)"/><circle cx="889.5" cy="781.5" r="13.5" transform="rotate(0,889.5,781.5)"/><circle cx="943.5" cy="781.5" r="13.5" transform="rotate(0,943.5,781.5)"/><circle cx="970.5" cy="781.5" r="13.5" transform="rotate(0,970.5,781.5)"/><circle cx="997.5" cy="781.5" r="13.5" transform="rotate(0,997.5,781.5)"/><circle cx="241.5" cy="808.5" r="13.5" transform="rotate(0,241.5,808.5)"/><circle cx="268.5" cy="808.5" r="13.5" transform="rotate(0,268.5,808.5)"/><circle cx="322.5" cy="808.5" r="13.5" transform="rotate(0,322.5,808.5)"/><circle cx="349.5" cy="808.5" r="13.5" transform="rotate(0,349.5,808.5)"/><circle cx="376.5" cy="808.5" r="13.5" transform="rotate(0,376.5,808.5)"/><circle cx="403.5" cy="808.5" r="13.5" transform="rotate(0,403.5,808.5)"/><circle cx="430.5" cy="808.5" r="13.5" transform="rotate(0,430.5,808.5)"/><circle cx="457.5" cy="808.5" r="13.5" transform="rotate(0,457.5,808.5)"/><circle cx="538.5" cy="808.5" r="13.5" transform="rotate(0,538.5,808.5)"/><circle cx="592.5" cy="808.5" r="13.5" transform="rotate(0,592.5,808.5)"/><circle cx="619.5" cy="808.5" r="13.5" transform="rotate(0,619.5,808.5)"/><circle cx="646.5" cy="808.5" r="13.5" transform="rotate(0,646.5,808.5)"/><circle cx="673.5" cy="808.5" r="13.5" transform="rotate(0,673.5,808.5)"/><circle cx="700.5" cy="808.5" r="13.5" transform="rotate(0,700.5,808.5)"/><circle cx="781.5" cy="808.5" r="13.5" transform="rotate(0,781.5,808.5)"/><circle cx="889.5" cy="808.5" r="13.5" transform="rotate(0,889.5,808.5)"/><circle cx="916.5" cy="808.5" r="13.5" transform="rotate(0,916.5,808.5)"/><circle cx="970.5" cy="808.5" r="13.5" transform="rotate(0,970.5,808.5)"/><circle cx="997.5" cy="808.5" r="13.5" transform="rotate(0,997.5,808.5)"/><circle cx="295.5" cy="835.5" r="13.5" transform="rotate(0,295.5,835.5)"/><circle cx="349.5" cy="835.5" r="13.5" transform="rotate(0,349.5,835.5)"/><circle cx="430.5" cy="835.5" r="13.5" transform="rotate(0,430.5,835.5)"/><circle cx="457.5" cy="835.5" r="13.5" transform="rotate(0,457.5,835.5)"/><circle cx="565.5" cy="835.5" r="13.5" transform="rotate(0,565.5,835.5)"/><circle cx="619.5" cy="835.5" r="13.5" transform="rotate(0,619.5,835.5)"/><circle cx="673.5" cy="835.5" r="13.5" transform="rotate(0,673.5,835.5)"/><circle cx="700.5" cy="835.5" r="13.5" transform="rotate(0,700.5,835.5)"/><circle cx="727.5" cy="835.5" r="13.5" transform="rotate(0,727.5,835.5)"/><circle cx="754.5" cy="835.5" r="13.5" transform="rotate(0,754.5,835.5)"/><circle cx="781.5" cy="835.5" r="13.5" transform="rotate(0,781.5,835.5)"/><circle cx="835.5" cy="835.5" r="13.5" transform="rotate(0,835.5,835.5)"/><circle cx="889.5" cy="835.5" r="13.5" transform="rotate(0,889.5,835.5)"/><circle cx="970.5" cy="835.5" r="13.5" transform="rotate(0,970.5,835.5)"/><circle cx="997.5" cy="835.5" r="13.5" transform="rotate(0,997.5,835.5)"/><circle cx="241.5" cy="862.5" r="13.5" transform="rotate(0,241.5,862.5)"/><circle cx="268.5" cy="862.5" r="13.5" transform="rotate(0,268.5,862.5)"/><circle cx="322.5" cy="862.5" r="13.5" transform="rotate(0,322.5,862.5)"/><circle cx="376.5" cy="862.5" r="13.5" transform="rotate(0,376.5,862.5)"/><circle cx="430.5" cy="862.5" r="13.5" transform="rotate(0,430.5,862.5)"/><circle cx="484.5" cy="862.5" r="13.5" transform="rotate(0,484.5,862.5)"/><circle cx="565.5" cy="862.5" r="13.5" transform="rotate(0,565.5,862.5)"/><circle cx="619.5" cy="862.5" r="13.5" transform="rotate(0,619.5,862.5)"/><circle cx="700.5" cy="862.5" r="13.5" transform="rotate(0,700.5,862.5)"/><circle cx="727.5" cy="862.5" r="13.5" transform="rotate(0,727.5,862.5)"/><circle cx="781.5" cy="862.5" r="13.5" transform="rotate(0,781.5,862.5)"/><circle cx="889.5" cy="862.5" r="13.5" transform="rotate(0,889.5,862.5)"/><circle cx="916.5" cy="862.5" r="13.5" transform="rotate(0,916.5,862.5)"/><circle cx="241.5" cy="889.5" r="13.5" transform="rotate(0,241.5,889.5)"/><circle cx="295.5" cy="889.5" r="13.5" transform="rotate(0,295.5,889.5)"/><circle cx="349.5" cy="889.5" r="13.5" transform="rotate(0,349.5,889.5)"/><circle cx="403.5" cy="889.5" r="13.5" transform="rotate(0,403.5,889.5)"/><circle cx="457.5" cy="889.5" r="13.5" transform="rotate(0,457.5,889.5)"/><circle cx="511.5" cy="889.5" r="13.5" transform="rotate(0,511.5,889.5)"/><circle cx="592.5" cy="889.5" r="13.5" transform="rotate(0,592.5,889.5)"/><circle cx="619.5" cy="889.5" r="13.5" transform="rotate(0,619.5,889.5)"/><circle cx="700.5" cy="889.5" r="13.5" transform="rotate(0,700.5,889.5)"/><circle cx="781.5" cy="889.5" r="13.5" transform="rotate(0,781.5,889.5)"/><circle cx="808.5" cy="889.5" r="13.5" transform="rotate(0,808.5,889.5)"/><circle cx="835.5" cy="889.5" r="13.5" transform="rotate(0,835.5,889.5)"/><circle cx="862.5" cy="889.5" r="13.5" transform="rotate(0,862.5,889.5)"/><circle cx="889.5" cy="889.5" r="13.5" transform="rotate(0,889.5,889.5)"/><circle cx="997.5" cy="889.5" r="13.5" transform="rotate(0,997.5,889.5)"/><circle cx="268.5" cy="916.5" r="13.5" transform="rotate(0,268.5,916.5)"/><circle cx="322.5" cy="916.5" r="13.5" transform="rotate(0,322.5,916.5)"/><circle cx="349.5" cy="916.5" r="13.5" transform="rotate(0,349.5,916.5)"/><circle cx="403.5" cy="916.5" r="13.5" transform="rotate(0,403.5,916.5)"/><circle cx="457.5" cy="916.5" r="13.5" transform="rotate(0,457.5,916.5)"/><circle cx="511.5" cy="916.5" r="13.5" transform="rotate(0,511.5,916.5)"/><circle cx="565.5" cy="916.5" r="13.5" transform="rotate(0,565.5,916.5)"/><circle cx="646.5" cy="916.5" r="13.5" transform="rotate(0,646.5,916.5)"/><circle cx="700.5" cy="916.5" r="13.5" transform="rotate(0,700.5,916.5)"/><circle cx="781.5" cy="916.5" r="13.5" transform="rotate(0,781.5,916.5)"/><circle cx="889.5" cy="916.5" r="13.5" transform="rotate(0,889.5,916.5)"/><circle cx="943.5" cy="916.5" r="13.5" transform="rotate(0,943.5,916.5)"/><circle cx="970.5" cy="916.5" r="13.5" transform="rotate(0,970.5,916.5)"/><circle cx="997.5" cy="916.5" r="13.5" transform="rotate(0,997.5,916.5)"/><circle cx="241.5" cy="943.5" r="13.5" transform="rotate(0,241.5,943.5)"/><circle cx="349.5" cy="943.5" r="13.5" transform="rotate(0,349.5,943.5)"/><circle cx="430.5" cy="943.5" r="13.5" transform="rotate(0,430.5,943.5)"/><circle cx="538.5" cy="943.5" r="13.5" transform="rotate(0,538.5,943.5)"/><circle cx="565.5" cy="943.5" r="13.5" transform="rotate(0,565.5,943.5)"/><circle cx="700.5" cy="943.5" r="13.5" transform="rotate(0,700.5,943.5)"/><circle cx="754.5" cy="943.5" r="13.5" transform="rotate(0,754.5,943.5)"/><circle cx="862.5" cy="943.5" r="13.5" transform="rotate(0,862.5,943.5)"/><circle cx="889.5" cy="943.5" r="13.5" transform="rotate(0,889.5,943.5)"/><circle cx="916.5" cy="943.5" r="13.5" transform="rotate(0,916.5,943.5)"/><circle cx="943.5" cy="943.5" r="13.5" transform="rotate(0,943.5,943.5)"/><circle cx="997.5" cy="943.5" r="13.5" transform="rotate(0,997.5,943.5)"/><circle cx="349.5" cy="970.5" r="13.5" transform="rotate(0,349.5,970.5)"/><circle cx="376.5" cy="970.5" r="13.5" transform="rotate(0,376.5,970.5)"/><circle cx="403.5" cy="970.5" r="13.5" transform="rotate(0,403.5,970.5)"/><circle cx="484.5" cy="970.5" r="13.5" transform="rotate(0,484.5,970.5)"/><circle cx="538.5" cy="970.5" r="13.5" transform="rotate(0,538.5,970.5)"/><circle cx="646.5" cy="970.5" r="13.5" transform="rotate(0,646.5,970.5)"/><circle cx="700.5" cy="970.5" r="13.5" transform="rotate(0,700.5,970.5)"/><circle cx="781.5" cy="970.5" r="13.5" transform="rotate(0,781.5,970.5)"/><circle cx="835.5" cy="970.5" r="13.5" transform="rotate(0,835.5,970.5)"/><circle cx="970.5" cy="970.5" r="13.5" transform="rotate(0,970.5,970.5)"/><circle cx="268.5" cy="997.5" r="13.5" transform="rotate(0,268.5,997.5)"/><circle cx="403.5" cy="997.5" r="13.5" transform="rotate(0,403.5,997.5)"/><circle cx="430.5" cy="997.5" r="13.5" transform="rotate(0,430.5,997.5)"/><circle cx="511.5" cy="997.5" r="13.5" transform="rotate(0,511.5,997.5)"/><circle cx="538.5" cy="997.5" r="13.5" transform="rotate(0,538.5,997.5)"/><circle cx="565.5" cy="997.5" r="13.5" transform="rotate(0,565.5,997.5)"/><circle cx="673.5" cy="997.5" r="13.5" transform="rotate(0,673.5,997.5)"/><circle cx="700.5" cy="997.5" r="13.5" transform="rotate(0,700.5,997.5)"/><circle cx="754.5" cy="997.5" r="13.5" transform="rotate(0,754.5,997.5)"/><circle cx="781.5" cy="997.5" r="13.5" transform="rotate(0,781.5,997.5)"/><circle cx="889.5" cy="997.5" r="13.5" transform="rotate(0,889.5,997.5)"/><circle cx="916.5" cy="997.5" r="13.5" transform="rotate(0,916.5,997.5)"/><circle cx="970.5" cy="997.5" r="13.5" transform="rotate(0,970.5,997.5)"/><circle cx="997.5" cy="997.5" r="13.5" transform="rotate(0,997.5,997.5)"/></clipPath><clipPath id="clip-path-corners-square-color-0-0-1"><circle cx="25.5" cy="25.5" r="13.5" transform="rotate(0,25.5,25.5)"/><circle cx="52.5" cy="25.5" r="13.5" transform="rotate(0,52.5,25.5)"/><circle cx="79.5" cy="25.5" r="13.5" transform="rotate(0,79.5,25.5)"/><circle cx="106.5" cy="25.5" r="13.5" transform="rotate(0,106.5,25.5)"/><circle cx="133.5" cy="25.5" r="13.5" transform="rotate(0,133.5,25.5)"/><circle cx="160.5" cy="25.5" r="13.5" transform="rotate(0,160.5,25.5)"/><circle cx="187.5" cy="25.5" r="13.5" transform="rotate(0,187.5,25.5)"/><circle cx="25.5" cy="52.5" r="13.5" transform="rotate(0,25.5,52.5)"/><circle cx="187.5" cy="52.5" r="13.5" transform="rotate(0,187.5,52.5)"/><circle cx="25.5" cy="79.5" r="13.5" transform="rotate(0,25.5,79.5)"/><circle cx="187.5" cy="79.5" r="13.5" transform="rotate(0,187.5,79.5)"/><circle cx="25.5" cy="106.5" r="13.5" transform="rotate(0,25.5,106.5)"/><circle cx="187.5" cy="106.5" r="13.5" transform="rotate(0,187.5,106.5)"/><circle cx="25.5" cy="133.5" r="13.5" transform="rotate(0,25.5,133.5)"/><circle cx="187.5" cy="133.5" r="13.5" transform="rotate(0,187.5,133.5)"/><circle cx="25.5" cy="160.5" r="13.5" transform="rotate(0,25.5,160.5)"/><circle cx="187.5" cy="160.5" r="13.5" transform="rotate(0,187.5,160.5)"/><circle cx="25.5" cy="187.5" r="13.5" transform="rotate(0,25.5,187.5)"/><circle cx="52.5" cy="187.5" r="13.5" transform="rotate(0,52.5,187.5)"/><circle cx="79.5" cy="187.5" r="13.5" transform="rotate(0,79.5,187.5)"/><circle cx="106.5" cy="187.5" r="13.5" transform="rotate(0,106.5,187.5)"/><circle cx="133.5" cy="187.5" r="13.5" transform="rotate(0,133.5,187.5)"/><circle cx="160.5" cy="187.5" r="13.5" transform="rotate(0,160.5,187.5)"/><circle cx="187.5" cy="187.5" r="13.5" transform="rotate(0,187.5,187.5)"/></clipPath><clipPath id="clip-path-corners-dot-color-0-0-1"><circle cx="79.5" cy="79.5" r="13.5" transform="rotate(0,79.5,79.5)"/><circle cx="106.5" cy="79.5" r="13.5" transform="rotate(0,106.5,79.5)"/><circle cx="133.5" cy="79.5" r="13.5" transform="rotate(0,133.5,79.5)"/><circle cx="79.5" cy="106.5" r="13.5" transform="rotate(0,79.5,106.5)"/><circle cx="106.5" cy="106.5" r="13.5" transform="rotate(0,106.5,106.5)"/><circle cx="133.5" cy="106.5" r="13.5" transform="rotate(0,133.5,106.5)"/><circle cx="79.5" cy="133.5" r="13.5" transform="rotate(0,79.5,133.5)"/><circle cx="106.5" cy="133.5" r="13.5" transform="rotate(0,106.5,133.5)"/><circle cx="133.5" cy="133.5" r="13.5" transform="rotate(0,133.5,133.5)"/></clipPath><clipPath id="clip-path-corners-square-color-1-0-1"><circle cx="835.5" cy="25.5" r="13.5" transform="rotate(0,835.5,25.5)"/><circle cx="862.5" cy="25.5" r="13.5" transform="rotate(0,862.5,25.5)"/><circle cx="889.5" cy="25.5" r="13.5" transform="rotate(0,889.5,25.5)"/><circle cx="916.5" cy="25.5" r="13.5" transform="rotate(0,916.5,25.5)"/><circle cx="943.5" cy="25.5" r="13.5" transform="rotate(0,943.5,25.5)"/><circle cx="970.5" cy="25.5" r="13.5" transform="rotate(0,970.5,25.5)"/><circle cx="997.5" cy="25.5" r="13.5" transform="rotate(0,997.5,25.5)"/><circle cx="835.5" cy="52.5" r="13.5" transform="rotate(0,835.5,52.5)"/><circle cx="997.5" cy="52.5" r="13.5" transform="rotate(0,997.5,52.5)"/><circle cx="835.5" cy="79.5" r="13.5" transform="rotate(0,835.5,79.5)"/><circle cx="997.5" cy="79.5" r="13.5" transform="rotate(0,997.5,79.5)"/><circle cx="835.5" cy="106.5" r="13.5" transform="rotate(0,835.5,106.5)"/><circle cx="997.5" cy="106.5" r="13.5" transform="rotate(0,997.5,106.5)"/><circle cx="835.5" cy="133.5" r="13.5" transform="rotate(0,835.5,133.5)"/><circle cx="997.5" cy="133.5" r="13.5" transform="rotate(0,997.5,133.5)"/><circle cx="835.5" cy="160.5" r="13.5" transform="rotate(0,835.5,160.5)"/><circle cx="997.5" cy="160.5" r="13.5" transform="rotate(0,997.5,160.5)"/><circle cx="835.5" cy="187.5" r="13.5" transform="rotate(0,835.5,187.5)"/><circle cx="862.5" cy="187.5" r="13.5" transform="rotate(0,862.5,187.5)"/><circle cx="889.5" cy="187.5" r="13.5" transform="rotate(0,889.5,187.5)"/><circle cx="916.5" cy="187.5" r="13.5" transform="rotate(0,916.5,187.5)"/><circle cx="943.5" cy="187.5" r="13.5" transform="rotate(0,943.5,187.5)"/><circle cx="970.5" cy="187.5" r="13.5" transform="rotate(0,970.5,187.5)"/><circle cx="997.5" cy="187.5" r="13.5" transform="rotate(0,997.5,187.5)"/></clipPath><clipPath id="clip-path-corners-dot-color-1-0-1"><circle cx="889.5" cy="79.5" r="13.5" transform="rotate(0,889.5,79.5)"/><circle cx="916.5" cy="79.5" r="13.5" transform="rotate(0,916.5,79.5)"/><circle cx="943.5" cy="79.5" r="13.5" transform="rotate(0,943.5,79.5)"/><circle cx="889.5" cy="106.5" r="13.5" transform="rotate(0,889.5,106.5)"/><circle cx="916.5" cy="106.5" r="13.5" transform="rotate(0,916.5,106.5)"/><circle cx="943.5" cy="106.5" r="13.5" transform="rotate(0,943.5,106.5)"/><circle cx="889.5" cy="133.5" r="13.5" transform="rotate(0,889.5,133.5)"/><circle cx="916.5" cy="133.5" r="13.5" transform="rotate(0,916.5,133.5)"/><circle cx="943.5" cy="133.5" r="13.5" transform="rotate(0,943.5,133.5)"/></clipPath><clipPath id="clip-path-corners-square-color-0-1-1"><circle cx="25.5" cy="835.5" r="13.5" transform="rotate(0,25.5,835.5)"/><circle cx="52.5" cy="835.5" r="13.5" transform="rotate(0,52.5,835.5)"/><circle cx="79.5" cy="835.5" r="13.5" transform="rotate(0,79.5,835.5)"/><circle cx="106.5" cy="835.5" r="13.5" transform="rotate(0,106.5,835.5)"/><circle cx="133.5" cy="835.5" r="13.5" transform="rotate(0,133.5,835.5)"/><circle cx="160.5" cy="835.5" r="13.5" transform="rotate(0,160.5,835.5)"/><circle cx="187.5" cy="835.5" r="13.5" transform="rotate(0,187.5,835.5)"/><circle cx="25.5" cy="862.5" r="13.5" transform="rotate(0,25.5,862.5)"/><circle cx="187.5" cy="862.5" r="13.5" transform="rotate(0,187.5,862.5)"/><circle cx="25.5" cy="889.5" r="13.5" transform="rotate(0,25.5,889.5)"/><circle cx="187.5" cy="889.5" r="13.5" transform="rotate(0,187.5,889.5)"/><circle cx="25.5" cy="916.5" r="13.5" transform="rotate(0,25.5,916.5)"/><circle cx="187.5" cy="916.5" r="13.5" transform="rotate(0,187.5,916.5)"/><circle cx="25.5" cy="943.5" r="13.5" transform="rotate(0,25.5,943.5)"/><circle cx="187.5" cy="943.5" r="13.5" transform="rotate(0,187.5,943.5)"/><circle cx="25.5" cy="970.5" r="13.5" transform="rotate(0,25.5,970.5)"/><circle cx="187.5" cy="970.5" r="13.5" transform="rotate(0,187.5,970.5)"/><circle cx="25.5" cy="997.5" r="13.5" transform="rotate(0,25.5,997.5)"/><circle cx="52.5" cy="997.5" r="13.5" transform="rotate(0,52.5,997.5)"/><circle cx="79.5" cy="997.5" r="13.5" transform="rotate(0,79.5,997.5)"/><circle cx="106.5" cy="997.5" r="13.5" transform="rotate(0,106.5,997.5)"/><circle cx="133.5" cy="997.5" r="13.5" transform="rotate(0,133.5,997.5)"/><circle cx="160.5" cy="997.5" r="13.5" transform="rotate(0,160.5,997.5)"/><circle cx="187.5" cy="997.5" r="13.5" transform="rotate(0,187.5,997.5)"/></clipPath><clipPath id="clip-path-corners-dot-color-0-1-1"><circle cx="79.5" cy="889.5" r="13.5" transform="rotate(0,79.5,889.5)"/><circle cx="106.5" cy="889.5" r="13.5" transform="rotate(0,106.5,889.5)"/><circle cx="133.5" cy="889.5" r="13.5" transform="rotate(0,133.5,889.5)"/><circle cx="79.5" cy="916.5" r="13.5" transform="rotate(0,79.5,916.5)"/><circle cx="106.5" cy="916.5" r="13.5" transform="rotate(0,106.5,916.5)"/><circle cx="133.5" cy="916.5" r="13.5" transform="rotate(0,133.5,916.5)"/><circle cx="79.5" cy="943.5" r="13.5" transform="rotate(0,79.5,943.5)"/><circle cx="106.5" cy="943.5" r="13.5" transform="rotate(0,106.5,943.5)"/><circle cx="133.5" cy="943.5" r="13.5" transform="rotate(0,133.5,943.5)"/></clipPath></defs><rect x="0" y="0" height="1024" width="1024" clip-path="url('#clip-path-background-color-1')" fill="#ffffff"/><rect x="0" y="0" height="1024" width="1024" clip-path="url('#clip-path-dot-color-1')" fill="#ffa200"/><rect x="12" y="12" height="189" width="189" clip-path="url('#clip-path-corners-square-color-0-0-1')" fill="#ffa200"/><rect x="66" y="66" height="81" width="81" clip-path="url('#clip-path-corners-dot-color-0-0-1')" fill="#ffa200"/><rect x="822" y="12" height="189" width="189" clip-path="url('#clip-path-corners-square-color-1-0-1')" fill="#ffa200"/><rect x="876" y="66" height="81" width="81" clip-path="url('#clip-path-corners-dot-color-1-0-1')" fill="#ffa200"/><rect x="12" y="822" height="189" width="189" clip-path="url('#clip-path-corners-square-color-0-1-1')" fill="#ffa200"/><rect x="66" y="876" height="81" width="81" clip-path="url('#clip-path-corners-dot-color-0-1-1')" fill="#ffa200"/></svg>